<svg width="344" height="353" viewBox="0 0 344 353" fill="none" xmlns="http://www.w3.org/2000/svg">
<path fill-rule="evenodd" clip-rule="evenodd" d="M130.1 1.39892C111.571 6.49192 81.5895 31.2259 57.1525 61.5779C35.3865 88.6109 13.5475 131.938 6.40649 162.251C0.698485 186.482 -0.0505066 193.165 0.00249343 219.397C0.0464934 241.32 0.32246 245.617 2.24346 254.31C12.3675 300.12 36.3425 328.796 77.0145 343.74C98.0025 351.451 125.151 354.49 149.201 351.818C205.745 345.538 256.232 315.287 293.428 265.397C318.64 231.58 334.431 194.241 340.793 153.397C345.73 121.703 342.938 92.5939 332.54 67.3399C319.552 35.7959 293.71 13.6789 262.441 7.34292C249.933 4.80792 229.014 5.72691 216.912 9.34191C195.106 15.8559 178.35 25.9669 161.428 42.8249C141.213 62.9619 128.775 85.4309 122.361 113.397C119.433 126.165 118.652 151.979 120.798 165.045C123.973 184.376 131.831 203.48 143.675 220.662C149.967 229.791 153.721 233.094 161.08 235.977C168.614 238.929 182.078 239.174 190.867 236.52C198.128 234.328 204.412 228.668 204.412 224.321C204.412 222.607 201.443 216.517 196.804 208.716C181.656 183.241 177.112 168.051 177.112 142.897C177.112 120.9 181.292 103.583 191.157 84.7129C205.015 58.2039 232.916 32.6309 254.827 26.3539C262.428 24.1759 273.78 24.8069 281.464 27.8349C297.303 34.0759 311.877 51.3649 320.819 74.5179C335.926 113.634 330.511 167.776 306.529 217.397C294.576 242.131 281.772 260.53 263.488 279.247C245.631 297.528 230.733 308.773 211.694 318.344C191.77 328.359 175.291 332.783 154.912 333.587C129.003 334.609 109.449 327.777 91.8094 311.539C79.2624 299.989 70.6585 285.861 64.5955 266.852C60.1645 252.957 58.3415 241.456 57.7085 223.383C56.5845 191.335 62.4405 162.035 76.5915 128.897C93.3115 89.7459 124.98 49.4259 157.572 25.7969C170.887 16.1439 172.412 14.6259 172.412 11.0309C172.412 7.19491 168.049 3.4609 161.183 1.4219C154.835 -0.463101 136.922 -0.477081 130.1 1.39892Z" fill="black"/>
</svg>
